<svg xmlns="http://www.w3.org/2000/svg" xmlns:xlink="http://www.w3.org/1999/xlink" width="195" height="30" viewBox="0 0 195 30">
  <defs>
    <polygon id="senweb-logo-a" points=".171 .846 99.95 .846 99.95 24.94 .171 24.94"/>
    <polygon id="senweb-logo-c" points=".06 .653 84.691 .653 84.691 28.94 .06 28.94"/>
  </defs>
  <g fill="none" fill-rule="evenodd">
    <g transform="translate(95 5)">
      <mask id="senweb-logo-b" fill="#fff">
        <use xlink:href="#senweb-logo-a"/>
      </mask>
      <path fill="#D82333" d="M19.873,15.212 C23.484,15.212 25.371,13.567 25.371,10.927 C25.371,8.555 23.754,7.206 21.22,7.206 C16.449,7.206 13.997,11.358 13.997,15.238 C13.997,18.446 15.99,20.575 18.875,20.575 C19.927,20.575 22.029,20.198 23.215,19.794 L23.215,17.206 C21.544,17.529 20.816,17.638 19.873,17.638 C18.309,17.638 17.742,16.425 17.742,15.212 L19.873,15.212 Z M18.148,13.109 C18.443,11.411 19.656,10.253 20.546,10.253 C21.059,10.253 21.49,10.495 21.49,11.196 C21.49,12.112 20.574,13.109 19.279,13.109 L18.148,13.109 Z M5.561,12.112 C6.208,11.411 7.395,10.791 8.068,10.791 C8.93,10.791 9.227,11.601 9.227,12.274 C9.227,13.944 7.96,17.638 5.723,17.638 C5.373,17.638 4.429,17.503 4.429,17.503 L5.561,12.112 Z M7.044,4.107 L7.044,0.9 L1.033,0.9 L1.033,4.107 L3.244,4.107 L0.171,20.306 L2.111,20.306 C3.163,20.306 4.32,20.575 5.643,20.575 C10.277,20.575 12.973,15.616 12.973,11.628 C12.973,8.581 11.706,7.206 10.143,7.206 C8.499,7.206 6.908,8.339 6.046,9.12 L7.044,4.107 L7.044,4.107 Z" mask="url(#senweb-logo-b)"/>
      <polyline fill="#D82333" points="46.93 .846 46.93 10.144 53.988 10.144 53.988 12.496 42.109 12.496 42.109 25 44.391 25 44.391 14.716 46.93 14.716 46.93 25 49.206 25 49.206 14.716 51.71 14.716 51.71 25 53.988 25 53.988 20.352 99.95 20.352 99.95 .846 46.93 .846" mask="url(#senweb-logo-b)"/>
      <polygon fill="#D82333" points="27.738 24.94 30.014 24.94 30.014 14.67 27.738 14.67" mask="url(#senweb-logo-b)"/>
      <polygon fill="#D82333" points="32.536 24.94 34.813 24.94 34.813 14.67 32.536 14.67" mask="url(#senweb-logo-b)"/>
      <polygon fill="#D82333" points="37.335 24.94 39.611 24.94 39.611 14.67 37.335 14.67" mask="url(#senweb-logo-b)"/>
    </g>
    <polygon fill="#D82333" points="122.738 17.497 137.115 17.497 137.115 15.143 122.738 15.143"/>
    <path fill="#D82333" d="M134.222,12.127 C134.222,11.205 134.97,10.457 135.891,10.457 C136.814,10.457 137.561,11.205 137.561,12.127 C137.561,13.049 136.814,13.797 135.891,13.797 C134.97,13.797 134.222,13.049 134.222,12.127"/>
    <path fill="#FFFFFE" d="M183.156,20.846 L184.541,20.846 L184.541,17.496 C184.541,17.496 184.482,16.864 184.712,16.196 C184.934,15.551 185.441,14.817 186.466,14.755 C187.667,14.682 187.595,16.007 187.595,16.007 L187.595,20.846 L188.988,20.846 L188.988,15.856 C188.988,15.856 189.104,13.863 187.244,13.786 C184.982,13.694 184.541,15.12 184.541,15.12 L184.541,13.863 C184.541,13.863 184.055,13.845 183.273,13.889 C182.529,13.932 181.99,13.982 181.99,13.982 L181.99,14.722 L183.156,14.859 L183.156,20.846 Z M178.539,14.868 L177.344,14.707 L177.344,13.968 C177.809,13.926 178.041,13.906 178.539,13.887 C179.141,13.863 179.596,13.845 179.895,13.863 L179.895,19.887 L181.146,20.077 L181.146,20.846 L177.344,20.846 L177.344,20.077 L178.539,19.887 L178.539,14.868 Z M178.234,11.886 C178.234,11.368 178.652,10.95 179.169,10.95 C179.686,10.95 180.104,11.368 180.104,11.886 C180.104,12.401 179.686,12.819 179.169,12.819 C178.652,12.819 178.234,12.401 178.234,11.886 L178.234,11.886 Z M173.749,11.538 C173.749,11.538 173.414,11.485 173.199,11.458 C172.959,11.428 172.583,11.396 172.583,11.396 L172.583,10.676 C172.583,10.676 173.434,10.619 173.977,10.608 C174.438,10.601 175.152,10.608 175.152,10.608 L175.152,19.887 L176.329,20.077 L176.329,20.846 L172.583,20.846 L172.583,20.077 L173.749,19.887 L173.749,11.538 Z M162.406,17.335 L166.912,17.335 C166.912,17.335 167.357,13.637 164.171,13.711 C161.345,13.777 161.051,16.311 161.031,17.373 C161.018,18.24 161.214,19.733 162.343,20.49 C162.807,20.803 163.748,21.021 164.674,20.979 C165.508,20.941 166.607,20.532 166.607,20.532 L166.607,19.46 C166.607,19.46 165.712,19.867 164.512,19.887 C162.161,19.926 162.406,17.335 162.406,17.335 L162.406,17.335 Z M164.143,14.646 C165.695,14.695 165.537,16.297 165.537,16.297 L162.502,16.297 C162.502,16.297 162.654,14.599 164.143,14.646 L164.143,14.646 Z M170.165,15.229 L170.165,13.863 C170.165,13.863 169.354,13.863 168.837,13.883 C168.382,13.899 167.67,13.948 167.67,13.948 L167.67,14.697 L168.837,14.85 L168.837,20.846 L170.203,20.846 L170.203,17.677 C170.203,17.677 170.146,16.173 170.848,15.424 C171.34,14.898 172.374,15.107 172.374,15.107 L172.374,13.786 C172.374,13.786 171.544,13.679 170.923,14.058 C170.336,14.416 170.165,15.229 170.165,15.229 L170.165,15.229 Z M153.047,11.951 C152.715,11.904 152.506,11.843 152.506,11.843 L152.506,11.051 C152.506,11.051 153.143,11.065 153.872,11.073 C154.602,11.083 155.238,11.026 156.129,11.026 C157.781,11.026 159.588,11.253 159.676,13.342 C159.752,15.144 157.949,15.665 157.949,15.665 C157.949,15.665 159.961,15.941 159.895,18.066 C159.801,21.045 156.109,20.846 156.109,20.846 L152.506,20.846 L152.506,20.077 L153.691,19.85 L153.691,12.031 C153.691,12.031 153.475,12.013 153.047,11.951 L153.047,11.951 Z M155.133,16.302 L155.133,19.726 C155.133,19.726 155.857,19.75 156.318,19.731 C157.675,19.674 158.482,19.023 158.424,17.946 C158.367,16.895 157.623,16.414 156.49,16.316 C155.966,16.27 155.133,16.302 155.133,16.302 L155.133,16.302 Z M155.133,12.137 L155.133,15.267 C155.133,15.267 155.669,15.267 156.059,15.258 C157.184,15.23 158.204,14.859 158.244,13.578 C158.273,12.667 157.566,12.212 156.863,12.165 C156.191,12.119 155.133,12.137 155.133,12.137 L155.133,12.137 Z"/>
    <g transform="translate(0 1)">
      <mask id="senweb-logo-d" fill="#fff">
        <use xlink:href="#senweb-logo-c"/>
      </mask>
      <line x1="84.191" x2="84.191" y1=".653" y2="28.999" stroke="#D82333" stroke-width=".6" mask="url(#senweb-logo-d)"/>
      <path fill="#D82333" d="M32.111 20.348L32.111 23.3C32.111 23.428 32.125 23.557 32.151 23.688 32.178 23.818 32.231 23.938 32.307 24.048 32.384 24.157 32.494 24.247 32.635 24.316 32.776 24.385 32.962 24.42 33.191 24.42 33.356 24.42 33.522 24.396 33.687 24.348 33.852 24.3 34.002 24.247 34.135 24.188 34.29 24.119 34.44 24.039 34.583 23.948L34.663 24.348 35.104 24.348 35.104 20.348 34.527 20.348 34.527 23.531C34.399 23.61 34.266 23.681 34.127 23.74 34.01 23.793 33.879 23.84 33.735 23.88 33.591 23.92 33.45 23.94 33.311 23.94 33.178 23.94 33.071 23.921 32.991 23.884 32.911 23.847 32.848 23.793 32.803 23.723 32.758 23.654 32.727 23.567 32.711 23.467 32.695 23.365 32.687 23.25 32.687 23.122L32.687 20.348 32.111 20.348zM39.431 24.348L39.431 21.396C39.431 21.268 39.419 21.139 39.391 21.008 39.364 20.877 39.313 20.757 39.235 20.648 39.158 20.539 39.048 20.449 38.907 20.38 38.766 20.311 38.58 20.275 38.351 20.275 38.186 20.275 38.021 20.301 37.856 20.352 37.69 20.403 37.54 20.457 37.407 20.516 37.252 20.585 37.104 20.663 36.96 20.748L36.879 20.348 36.44 20.348 36.44 24.348 37.015 24.348 37.015 21.165C37.143 21.09 37.276 21.023 37.415 20.964 37.532 20.911 37.663 20.863 37.807 20.82 37.951 20.776 38.092 20.756 38.231 20.756 38.364 20.756 38.471 20.775 38.551 20.812 38.631 20.85 38.694 20.903 38.739 20.972 38.784 21.042 38.815 21.128 38.831 21.229 38.847 21.331 38.856 21.446 38.856 21.574L38.856 24.348 39.431 24.348zM43.527 24.348L43.527 18.268 42.951 18.268 42.951 20.268 42.991 20.74C42.9 20.655 42.796 20.577 42.679 20.508 42.578 20.449 42.456 20.396 42.315 20.348 42.174 20.3 42.012 20.275 41.831 20.275 41.676 20.275 41.519 20.315 41.359 20.392 41.199 20.469 41.054 20.593 40.923 20.764 40.793 20.935 40.684 21.156 40.599 21.428 40.514 21.7 40.471 22.033 40.471 22.428 40.471 23.121 40.586 23.627 40.815 23.943 41.044 24.261 41.367 24.42 41.783 24.42 41.917 24.42 42.054 24.396 42.195 24.348 42.336 24.3 42.468 24.247 42.591 24.188 42.731 24.119 42.868 24.039 43.007 23.948L43.087 24.348 43.527 24.348zM42.951 23.524C42.823 23.599 42.695 23.665 42.567 23.724 42.46 23.776 42.346 23.824 42.223 23.864 42.1 23.904 41.991 23.924 41.896 23.924 41.74 23.924 41.61 23.887 41.503 23.812 41.397 23.737 41.311 23.631 41.247 23.492 41.183 23.353 41.136 23.188 41.107 22.996 41.078 22.804 41.064 22.588 41.064 22.348 41.064 21.863 41.144 21.479 41.307 21.196 41.47 20.913 41.679 20.771 41.935 20.771 42.106 20.771 42.255 20.795 42.383 20.84 42.511 20.885 42.618 20.937 42.703 20.996 42.799 21.06 42.882 21.135 42.951 21.22L42.951 23.524zM48.831 21.385C49.092 21.294 49.304 21.142 49.467 20.929 49.629 20.716 49.711 20.437 49.711 20.09 49.711 19.818 49.661 19.596 49.564 19.423 49.464 19.25 49.334 19.113 49.171 19.012 49.008 18.911 48.824 18.841 48.619 18.804 48.413 18.767 48.204 18.748 47.991 18.748L46.783 18.748 46.783 24.348 48.071 24.348C48.327 24.348 48.569 24.316 48.799 24.256 49.028 24.193 49.229 24.1 49.399 23.972 49.569 23.843 49.705 23.681 49.807 23.483 49.908 23.286 49.96 23.051 49.96 22.778 49.96 22.538 49.927 22.337 49.863 22.174 49.799 22.011 49.715 21.877 49.611 21.773 49.507 21.669 49.387 21.588 49.252 21.529 49.115 21.47 48.975 21.425 48.831 21.393L48.831 21.385zM47.935 19.244C48.089 19.244 48.237 19.26 48.379 19.292 48.521 19.324 48.646 19.379 48.755 19.456 48.864 19.533 48.951 19.635 49.015 19.76 49.079 19.885 49.111 20.044 49.111 20.236 49.111 20.396 49.079 20.537 49.015 20.66 48.951 20.783 48.864 20.884 48.755 20.964 48.646 21.044 48.521 21.104 48.379 21.144 48.237 21.184 48.089 21.204 47.935 21.204L47.391 21.204 47.391 19.244 47.935 19.244zM48.007 21.684C48.193 21.684 48.368 21.7 48.531 21.732 48.693 21.764 48.835 21.821 48.955 21.9 49.075 21.981 49.169 22.091 49.239 22.23 49.308 22.369 49.343 22.546 49.343 22.76 49.343 22.941 49.308 23.101 49.239 23.238 49.169 23.374 49.075 23.488 48.955 23.579 48.835 23.67 48.693 23.738 48.531 23.784 48.368 23.829 48.193 23.852 48.007 23.852L47.391 23.852 47.391 21.684 48.007 21.684zM53.703 23.651C53.569 23.705 53.433 23.751 53.295 23.788 53.172 23.82 53.04 23.849 52.899 23.876 52.757 23.903 52.617 23.916 52.48 23.916 52.287 23.916 52.127 23.884 52 23.821 51.871 23.757 51.767 23.67 51.688 23.558 51.607 23.447 51.548 23.313 51.511 23.157 51.473 23 51.447 22.829 51.431 22.644L52.215 22.644C52.401 22.644 52.588 22.628 52.775 22.596 52.961 22.564 53.128 22.501 53.275 22.407 53.421 22.314 53.542 22.185 53.635 22.022 53.729 21.858 53.775 21.646 53.775 21.384 53.775 21.015 53.663 20.736 53.44 20.549 53.215 20.362 52.911 20.268 52.527 20.268 52.281 20.268 52.056 20.312 51.851 20.4 51.646 20.488 51.468 20.623 51.319 20.804 51.169 20.984 51.053 21.211 50.971 21.48 50.888 21.749 50.847 22.063 50.847 22.42 50.847 23.044 50.971 23.532 51.219 23.884 51.467 24.235 51.852 24.412 52.376 24.412 52.556 24.412 52.727 24.4 52.887 24.376 53.047 24.352 53.189 24.324 53.311 24.292 53.449 24.255 53.58 24.212 53.703 24.164L53.703 23.651zM51.423 22.164C51.428 21.971 51.456 21.789 51.507 21.617 51.557 21.445 51.628 21.295 51.719 21.166 51.809 21.038 51.923 20.936 52.059 20.861 52.195 20.786 52.351 20.748 52.527 20.748 52.745 20.748 52.912 20.807 53.027 20.925 53.141 21.043 53.199 21.209 53.199 21.424 53.199 21.649 53.119 21.829 52.96 21.963 52.799 22.097 52.551 22.164 52.215 22.164L51.423 22.164zM56.839 23.876C56.796 23.887 56.752 23.895 56.703 23.899 56.623 23.916 56.532 23.924 56.431 23.924 56.276 23.924 56.152 23.905 56.059 23.868 55.965 23.83 55.896 23.774 55.847 23.7 55.799 23.625 55.767 23.528 55.752 23.411 55.735 23.293 55.727 23.154 55.727 22.994L55.727 20.828 56.719 20.828 56.719 20.348 55.727 20.348 55.727 18.748 55.151 18.748 55.151 20.348 54.487 20.348 54.487 20.828 55.151 20.828 55.151 23.081C55.151 23.535 55.239 23.872 55.415 24.091 55.591 24.31 55.898 24.42 56.335 24.42 56.393 24.42 56.452 24.419 56.511 24.416 56.569 24.413 56.623 24.407 56.671 24.396 56.73 24.391 56.785 24.383 56.839 24.372L56.839 23.876zM59.623 20.275C59.436 20.265 59.257 20.285 59.087 20.336 58.917 20.387 58.761 20.441 58.623 20.5 58.463 20.568 58.311 20.651 58.168 20.748L58.087 20.348 57.648 20.348 57.648 24.348 58.223 24.348 58.223 21.172C58.367 21.092 58.516 21.023 58.671 20.964 58.804 20.911 58.953 20.867 59.119 20.832 59.284 20.797 59.452 20.788 59.623 20.804L59.623 20.275zM60.511 24.348L61.087 24.348 61.087 20.348 60.511 20.348 60.511 24.348zM60.48 19.412C60.569 19.503 60.681 19.548 60.815 19.548 60.948 19.548 61.06 19.503 61.151 19.412 61.241 19.321 61.287 19.209 61.287 19.076 61.287 18.942 61.241 18.831 61.151 18.74 61.06 18.649 60.948 18.604 60.815 18.604 60.681 18.604 60.569 18.649 60.48 18.74 60.388 18.831 60.343 18.942 60.343 19.076 60.343 19.209 60.388 19.321 60.48 19.412L60.48 19.412zM64.998 23.651C64.865 23.705 64.73 23.751 64.59 23.788 64.468 23.82 64.336 23.849 64.194 23.876 64.053 23.903 63.913 23.916 63.774 23.916 63.582 23.916 63.422 23.884 63.294 23.821 63.167 23.757 63.063 23.67 62.982 23.558 62.902 23.447 62.844 23.313 62.806 23.157 62.769 23 62.742 22.829 62.726 22.644L63.51 22.644C63.697 22.644 63.884 22.628 64.07 22.596 64.257 22.564 64.424 22.501 64.57 22.407 64.717 22.314 64.837 22.185 64.93 22.022 65.024 21.858 65.07 21.646 65.07 21.384 65.07 21.015 64.959 20.736 64.734 20.549 64.51 20.362 64.206 20.268 63.822 20.268 63.577 20.268 63.352 20.312 63.147 20.4 62.941 20.488 62.764 20.623 62.614 20.804 62.465 20.984 62.349 21.211 62.266 21.48 62.184 21.749 62.142 22.063 62.142 22.42 62.142 23.044 62.266 23.532 62.514 23.884 62.762 24.235 63.148 24.412 63.67 24.412 63.852 24.412 64.023 24.4 64.182 24.376 64.342 24.352 64.484 24.324 64.606 24.292 64.745 24.255 64.877 24.212 64.998 24.164L64.998 23.651zM62.718 22.164C62.724 21.971 62.752 21.789 62.802 21.617 62.854 21.445 62.924 21.295 63.014 21.166 63.106 21.038 63.218 20.936 63.355 20.861 63.49 20.786 63.646 20.748 63.822 20.748 64.042 20.748 64.209 20.807 64.322 20.925 64.437 21.043 64.494 21.209 64.494 21.424 64.494 21.649 64.414 21.829 64.254 21.963 64.094 22.097 63.846 22.164 63.51 22.164L62.718 22.164zM66.206 18.268L66.206 24.348 66.646 24.348 66.726 23.948C66.817 24.039 66.921 24.119 67.038 24.188 67.14 24.247 67.262 24.3 67.406 24.348 67.55 24.396 67.716 24.42 67.902 24.42 68.052 24.42 68.209 24.381 68.37 24.304 68.533 24.227 68.68 24.103 68.81 23.932 68.941 23.761 69.049 23.54 69.134 23.268 69.22 22.996 69.262 22.663 69.262 22.268 69.262 21.575 69.148 21.068 68.919 20.752 68.689 20.435 68.366 20.275 67.95 20.275 67.817 20.275 67.68 20.301 67.538 20.352 67.398 20.403 67.268 20.457 67.15 20.516 67.012 20.585 66.877 20.663 66.742 20.748L66.782 20.275 66.782 18.268 66.206 18.268zM66.782 21.172C66.91 21.097 67.038 21.031 67.166 20.972 67.273 20.924 67.388 20.879 67.51 20.836 67.633 20.793 67.742 20.771 67.838 20.771 67.993 20.771 68.124 20.809 68.23 20.884 68.337 20.959 68.422 21.065 68.486 21.204 68.55 21.343 68.597 21.508 68.627 21.7 68.656 21.892 68.67 22.108 68.67 22.348 68.67 22.833 68.589 23.217 68.426 23.5 68.264 23.783 68.054 23.924 67.798 23.924 67.628 23.924 67.479 23.9 67.35 23.856 67.222 23.811 67.116 23.759 67.03 23.7 66.934 23.636 66.852 23.561 66.782 23.476L66.782 21.172zM72.894 23.651C72.761 23.705 72.626 23.751 72.486 23.788 72.364 23.82 72.232 23.849 72.09 23.876 71.949 23.903 71.809 23.916 71.67 23.916 71.479 23.916 71.318 23.884 71.19 23.821 71.063 23.757 70.959 23.67 70.878 23.558 70.798 23.447 70.74 23.313 70.702 23.157 70.665 23 70.638 22.829 70.622 22.644L71.406 22.644C71.593 22.644 71.78 22.628 71.966 22.596 72.153 22.564 72.32 22.501 72.466 22.407 72.613 22.314 72.733 22.185 72.826 22.022 72.92 21.858 72.966 21.646 72.966 21.384 72.966 21.015 72.854 20.736 72.63 20.549 72.406 20.362 72.102 20.268 71.718 20.268 71.473 20.268 71.248 20.312 71.043 20.4 70.837 20.488 70.66 20.623 70.51 20.804 70.361 20.984 70.245 21.211 70.162 21.48 70.08 21.749 70.038 22.063 70.038 22.42 70.038 23.044 70.162 23.532 70.41 23.884 70.658 24.235 71.044 24.412 71.566 24.412 71.748 24.412 71.919 24.4 72.078 24.376 72.238 24.352 72.38 24.324 72.502 24.292 72.641 24.255 72.772 24.212 72.894 24.164L72.894 23.651zM70.614 22.164C70.62 21.971 70.648 21.789 70.698 21.617 70.749 21.445 70.82 21.295 70.91 21.166 71.002 21.038 71.114 20.936 71.251 20.861 71.386 20.786 71.543 20.748 71.718 20.748 71.937 20.748 72.104 20.807 72.218 20.925 72.334 21.043 72.39 21.209 72.39 21.424 72.39 21.649 72.31 21.829 72.15 21.963 71.99 22.097 71.742 22.164 71.406 22.164L70.614 22.164 70.614 22.164zM2.352 9.044C2.299 9.039 2.243 9.031 2.184 9.02 2.136 9.015 2.083 9.009 2.024 9.004 1.965 8.999 1.907 8.996 1.848 8.996 1.411 8.996 1.104 9.105.928 9.324.752 9.543.664 9.879.664 10.332L.664 11.147 0 11.147 0 11.628.664 11.628.664 15.148 1.24 15.148 1.24 11.628 2.232 11.628 2.232 11.147 1.24 11.147 1.24 10.42C1.24 10.26 1.248 10.121 1.264 10.004 1.28 9.887 1.312 9.791 1.36 9.716 1.408 9.641 1.479 9.585 1.572 9.548 1.665 9.511 1.789 9.492 1.944 9.492 1.987 9.492 2.032 9.495 2.08 9.5 2.128 9.505 2.173 9.511 2.216 9.516 2.264 9.527 2.309 9.535 2.352 9.54L2.352 9.044zM3.304 10.088C3.224 10.165 3.184 10.265 3.184 10.388 3.184 10.511 3.224 10.608 3.304 10.684 3.384 10.759 3.48 10.796 3.592 10.796 3.715 10.796 3.816 10.759 3.896 10.684 3.976 10.608 4.016 10.511 4.016 10.388 4.016 10.265 3.975 10.165 3.892 10.088 3.809 10.011 3.709 9.972 3.592 9.972 3.48 9.972 3.384 10.011 3.304 10.088L3.304 10.088zM5.08 10.088C5 10.165 4.96 10.265 4.96 10.388 4.96 10.511 5 10.608 5.08 10.684 5.16 10.759 5.256 10.796 5.368 10.796 5.491 10.796 5.592 10.759 5.672 10.684 5.752 10.608 5.792 10.511 5.792 10.388 5.792 10.265 5.751 10.165 5.668 10.088 5.585 10.011 5.485 9.972 5.368 9.972 5.256 9.972 5.16 10.011 5.08 10.088L5.08 10.088zM2.976 11.147L2.976 14.1C2.976 14.228 2.989 14.357 3.016 14.488 3.043 14.619 3.095 14.739 3.172 14.848 3.249 14.957 3.359 15.047 3.5 15.116 3.641 15.185 3.827 15.22 4.056 15.22 4.221 15.22 4.387 15.196 4.552 15.148 4.717 15.1 4.867 15.047 5 14.988 5.155 14.919 5.304 14.839 5.448 14.748L5.528 15.148 5.968 15.148 5.968 11.147 5.392 11.147 5.392 14.331C5.264 14.411 5.131 14.481 4.992 14.54 4.875 14.593 4.744 14.64 4.6 14.68 4.456 14.72 4.315 14.74 4.176 14.74 4.043 14.74 3.936 14.721 3.856 14.684 3.776 14.647 3.713 14.593 3.668 14.524 3.623 14.454 3.592 14.368 3.576 14.267 3.56 14.166 3.552 14.051 3.552 13.922L3.552 11.147 2.976 11.147zM9.28 11.076C9.093 11.065 8.915 11.085 8.744 11.136 8.573 11.187 8.419 11.241 8.28 11.3 8.12 11.369 7.968 11.452 7.824 11.548L7.744 11.147 7.304 11.147 7.304 15.148 7.88 15.148 7.88 11.972C8.024 11.892 8.173 11.823 8.328 11.764 8.461 11.711 8.611 11.667 8.776 11.632 8.941 11.597 9.109 11.588 9.28 11.604L9.28 11.076zM16.384 15.148C16.464 14.812 16.536 14.492 16.6 14.188 16.626 14.06 16.653 13.928 16.68 13.792 16.706 13.656 16.732 13.524 16.756 13.396 16.78 13.268 16.8 13.148 16.816 13.036 16.832 12.924 16.842 12.828 16.848 12.748L17.064 9.548 16.432 9.548 16.288 12.748C16.277 12.865 16.258 13.031 16.232 13.244 16.205 13.457 16.176 13.668 16.144 13.876 16.106 14.121 16.064 14.38 16.016 14.651L14.776 9.548 14.056 9.548 12.816 14.651C12.768 14.375 12.725 14.113 12.688 13.868 12.656 13.66 12.625 13.451 12.596 13.24 12.566 13.029 12.549 12.865 12.544 12.748L12.4 9.548 11.744 9.548 11.96 12.748C11.965 12.828 11.976 12.924 11.992 13.036 12.008 13.148 12.028 13.268 12.052 13.396 12.076 13.524 12.102 13.656 12.132 13.792 12.161 13.928 12.189 14.06 12.216 14.188 12.28 14.492 12.352 14.812 12.432 15.148L13.224 15.148 14.4 10.26 15.576 15.148 16.384 15.148zM18.256 15.148L18.832 15.148 18.832 11.148 18.256 11.148 18.256 15.148zM18.224 10.212C18.314 10.303 18.426 10.348 18.56 10.348 18.693 10.348 18.805 10.303 18.896 10.212 18.986 10.121 19.032 10.009 19.032 9.876 19.032 9.743 18.986 9.631 18.896 9.54 18.805 9.449 18.693 9.404 18.56 9.404 18.426 9.404 18.314 9.449 18.224 9.54 18.133 9.631 18.088 9.743 18.088 9.876 18.088 10.009 18.133 10.121 18.224 10.212L18.224 10.212zM22.144 11.076C21.957 11.065 21.778 11.085 21.608 11.136 21.437 11.187 21.282 11.241 21.144 11.3 20.984 11.369 20.832 11.452 20.688 11.548L20.608 11.147 20.168 11.147 20.168 15.148 20.744 15.148 20.744 11.972C20.888 11.892 21.037 11.823 21.192 11.764 21.325 11.711 21.474 11.667 21.64 11.632 21.805 11.597 21.973 11.588 22.144 11.604L22.144 11.076zM24.96 14.676C24.917 14.687 24.872 14.695 24.824 14.7 24.744 14.716 24.653 14.724 24.552 14.724 24.397 14.724 24.273 14.705 24.18 14.668 24.086 14.631 24.016 14.574 23.968 14.5 23.92 14.425 23.888 14.328 23.872 14.211 23.856 14.093 23.848 13.954 23.848 13.794L23.848 11.628 24.84 11.628 24.84 11.147 23.848 11.147 23.848 9.548 23.272 9.548 23.272 11.147 22.608 11.147 22.608 11.628 23.272 11.628 23.272 13.881C23.272 14.335 23.36 14.672 23.536 14.891 23.712 15.109 24.018 15.22 24.456 15.22 24.514 15.22 24.573 15.219 24.632 15.216 24.69 15.213 24.744 15.207 24.792 15.196 24.85 15.191 24.906 15.183 24.96 15.172L24.96 14.676zM27.839 11.181C27.738 11.165 27.634 11.147 27.527 11.132 27.437 11.121 27.33 11.108 27.207 11.096 27.085 11.083 26.959 11.076 26.831 11.076 26.597 11.076 26.395 11.104 26.227 11.16 26.059 11.216 25.922 11.294 25.815 11.393 25.709 11.492 25.63 11.607 25.579 11.738 25.529 11.868 25.503 12.009 25.503 12.158 25.503 12.399 25.551 12.59 25.647 12.732 25.743 12.873 25.863 12.987 26.007 13.072 26.151 13.158 26.309 13.226 26.479 13.276 26.65 13.328 26.807 13.385 26.951 13.449 27.095 13.513 27.215 13.593 27.311 13.689 27.407 13.786 27.455 13.922 27.455 14.099 27.455 14.163 27.446 14.231 27.427 14.303 27.409 14.375 27.371 14.441 27.315 14.504 27.259 14.565 27.183 14.617 27.087 14.66 26.991 14.703 26.863 14.724 26.703 14.724 26.57 14.724 26.435 14.715 26.299 14.696 26.163 14.677 26.039 14.655 25.927 14.628 25.794 14.601 25.666 14.569 25.543 14.532L25.543 15.07C25.655 15.102 25.775 15.128 25.903 15.149 26.01 15.17 26.133 15.187 26.271 15.2 26.41 15.213 26.554 15.22 26.703 15.22 26.959 15.22 27.173 15.187 27.343 15.12 27.514 15.054 27.65 14.966 27.751 14.857 27.853 14.748 27.925 14.624 27.967 14.486 28.01 14.347 28.031 14.209 28.031 14.071 28.031 13.81 27.983 13.602 27.887 13.448 27.791 13.294 27.67 13.173 27.523 13.085 27.377 12.997 27.218 12.926 27.047 12.873 26.877 12.82 26.718 12.764 26.571 12.705 26.425 12.646 26.303 12.571 26.207 12.478 26.111 12.385 26.063 12.253 26.063 12.083 26.063 11.95 26.117 11.829 26.223 11.72 26.33 11.611 26.533 11.556 26.831 11.556 26.949 11.556 27.066 11.564 27.183 11.58L27.511 11.612C27.623 11.633 27.733 11.652 27.839 11.668L27.839 11.181zM31.463 14.556C31.367 14.593 31.269 14.623 31.167 14.644 31.077 14.665 30.974 14.684 30.859 14.7 30.745 14.716 30.629 14.724 30.511 14.724 30.373 14.724 30.237 14.701 30.103 14.656 29.97 14.611 29.853 14.529 29.751 14.412 29.65 14.295 29.569 14.133 29.507 13.928 29.446 13.723 29.415 13.463 29.415 13.148 29.415 12.881 29.446 12.649 29.507 12.452 29.569 12.255 29.65 12.091 29.751 11.96 29.853 11.829 29.97 11.732 30.103 11.668 30.237 11.604 30.375 11.572 30.519 11.572 30.637 11.572 30.749 11.58 30.855 11.596 30.962 11.612 31.058 11.628 31.143 11.644 31.239 11.665 31.333 11.687 31.423 11.708L31.423 11.204C31.322 11.183 31.218 11.161 31.111 11.14 31.021 11.124 30.921 11.108 30.811 11.096 30.702 11.083 30.602 11.076 30.511 11.076 30.245 11.076 30.007 11.127 29.799 11.228 29.591 11.329 29.415 11.473 29.271 11.66 29.127 11.847 29.017 12.072 28.939 12.336 28.862 12.6 28.823 12.897 28.823 13.228 28.823 13.889 28.962 14.387 29.239 14.72 29.517 15.053 29.941 15.22 30.511 15.22 30.639 15.22 30.761 15.212 30.875 15.196 30.99 15.18 31.093 15.161 31.183 15.14 31.285 15.119 31.378 15.092 31.463 15.06L31.463 14.556zM35.423 15.148L35.423 12.196C35.423 12.067 35.41 11.939 35.383 11.808 35.357 11.677 35.305 11.557 35.227 11.448 35.15 11.339 35.041 11.249 34.899 11.18 34.758 11.111 34.573 11.076 34.343 11.076 34.178 11.076 34.014 11.1 33.851 11.147 33.689 11.196 33.541 11.249 33.407 11.308 33.253 11.377 33.106 11.455 32.967 11.54L33.007 11.06 33.007 9.067 32.431 9.067 32.431 15.148 33.007 15.148 33.007 11.965C33.135 11.89 33.269 11.823 33.407 11.765 33.525 11.711 33.655 11.663 33.799 11.62 33.943 11.577 34.085 11.556 34.223 11.556 34.357 11.556 34.463 11.575 34.543 11.612 34.623 11.649 34.686 11.703 34.731 11.772 34.777 11.842 34.807 11.928 34.823 12.029 34.839 12.131 34.847 12.246 34.847 12.374L34.847 15.148 35.423 15.148zM36.807 11.82C36.967 11.772 37.127 11.729 37.287 11.691 37.426 11.66 37.575 11.629 37.735 11.6 37.895 11.571 38.045 11.556 38.183 11.556 38.477 11.556 38.675 11.608 38.779 11.713 38.883 11.817 38.935 12.007 38.935 12.281L38.935 12.748 37.991 12.748C37.789 12.748 37.601 12.777 37.427 12.836 37.254 12.895 37.106 12.979 36.983 13.088 36.861 13.197 36.765 13.332 36.695 13.492 36.626 13.651 36.591 13.833 36.591 14.036 36.591 14.196 36.614 14.348 36.659 14.492 36.705 14.636 36.774 14.761 36.867 14.868 36.961 14.975 37.079 15.06 37.223 15.124 37.367 15.188 37.541 15.22 37.743 15.22 37.882 15.22 38.023 15.196 38.167 15.148 38.311 15.1 38.445 15.047 38.567 14.988 38.706 14.919 38.847 14.839 38.991 14.748L39.071 15.148 39.511 15.148 39.511 12.14C39.511 11.932 39.487 11.76 39.439 11.624 39.391 11.488 39.318 11.38 39.219 11.3 39.121 11.22 38.995 11.163 38.843 11.128 38.691 11.093 38.511 11.076 38.303 11.076 38.106 11.076 37.918 11.089 37.739 11.116 37.561 11.142 37.402 11.168 37.263 11.195 37.098 11.232 36.946 11.271 36.807 11.313L36.807 11.82zM37.419 13.399C37.587 13.269 37.799 13.204 38.055 13.204L38.935 13.204 38.935 14.316C38.807 14.396 38.679 14.465 38.551 14.524 38.445 14.577 38.327 14.624 38.199 14.664 38.071 14.704 37.954 14.724 37.847 14.724 37.629 14.724 37.461 14.657 37.343 14.524 37.226 14.391 37.167 14.212 37.167 13.988 37.167 13.727 37.251 13.531 37.419 13.399L37.419 13.399zM42.775 9.044C42.722 9.039 42.666 9.031 42.607 9.02 42.559 9.015 42.506 9.009 42.447 9.004 42.388 8.999 42.33 8.996 42.271 8.996 41.834 8.996 41.527 9.105 41.351 9.324 41.175 9.543 41.087 9.879 41.087 10.332L41.087 11.147 40.423 11.147 40.423 11.628 41.087 11.628 41.087 15.148 41.663 15.148 41.663 11.628 42.655 11.628 42.655 11.147 41.663 11.147 41.663 10.42C41.663 10.26 41.671 10.121 41.687 10.004 41.703 9.887 41.735 9.791 41.783 9.716 41.831 9.641 41.902 9.585 41.995 9.548 42.088 9.511 42.212 9.492 42.367 9.492 42.41 9.492 42.455 9.495 42.503 9.5 42.551 9.505 42.596 9.511 42.639 9.516 42.687 9.527 42.732 9.535 42.775 9.54L42.775 9.044zM45.271 14.676C45.228 14.687 45.183 14.695 45.135 14.7 45.055 14.716 44.964 14.724 44.863 14.724 44.708 14.724 44.584 14.705 44.491 14.668 44.398 14.631 44.327 14.574 44.279 14.5 44.231 14.425 44.199 14.328 44.183 14.211 44.167 14.093 44.159 13.954 44.159 13.794L44.159 11.628 45.151 11.628 45.151 11.147 44.159 11.147 44.159 9.548 43.583 9.548 43.583 11.147 42.919 11.147 42.919 11.628 43.583 11.628 43.583 13.881C43.583 14.335 43.671 14.672 43.847 14.891 44.023 15.109 44.33 15.22 44.767 15.22 44.826 15.22 44.884 15.219 44.943 15.216 45.002 15.213 45.055 15.207 45.103 15.196 45.162 15.191 45.218 15.183 45.271 15.172L45.271 14.676zM46.411 14.424C46.318 14.517 46.271 14.633 46.271 14.772 46.271 14.873 46.296 14.961 46.347 15.036 46.398 15.111 46.466 15.167 46.551 15.204L46.047 16.308 46.463 16.308 47.239 15.18 47.239 14.764C47.239 14.625 47.192 14.511 47.099 14.42 47.006 14.329 46.89 14.284 46.751 14.284 46.618 14.284 46.504 14.331 46.411 14.424L46.411 14.424zM49.487 15.148L52.223 15.148 52.223 14.62 50.095 14.62 50.095 12.516 51.983 12.516 51.983 12.004 50.095 12.004 50.095 10.076 52.143 10.076 52.143 9.548 49.487 9.548 49.487 15.148zM56.359 15.148L56.359 12.196C56.359 12.067 56.346 11.939 56.319 11.808 56.292 11.677 56.24 11.557 56.163 11.448 56.086 11.339 55.976 11.249 55.835 11.18 55.694 11.111 55.508 11.076 55.279 11.076 55.114 11.076 54.948 11.101 54.783 11.152 54.618 11.203 54.468 11.257 54.335 11.316 54.18 11.385 54.031 11.463 53.887 11.548L53.807 11.147 53.367 11.147 53.367 15.148 53.943 15.148 53.943 11.965C54.071 11.89 54.204 11.823 54.343 11.765 54.46 11.711 54.591 11.663 54.735 11.62 54.879 11.577 55.02 11.556 55.159 11.556 55.292 11.556 55.399 11.575 55.479 11.612 55.559 11.649 55.622 11.703 55.667 11.772 55.712 11.842 55.743 11.928 55.759 12.029 55.775 12.131 55.783 12.246 55.783 12.374L55.783 15.148 56.359 15.148zM60.255 14.452C60.121 14.505 59.985 14.551 59.847 14.588 59.724 14.62 59.592 14.649 59.451 14.676 59.309 14.703 59.169 14.716 59.031 14.716 58.839 14.716 58.679 14.684 58.551 14.621 58.423 14.557 58.319 14.47 58.239 14.358 58.159 14.247 58.1 14.113 58.063 13.957 58.025 13.801 57.999 13.63 57.983 13.444L58.767 13.444C58.953 13.444 59.14 13.428 59.327 13.396 59.513 13.364 59.68 13.301 59.827 13.207 59.973 13.114 60.093 12.984 60.187 12.822 60.28 12.659 60.327 12.446 60.327 12.184 60.327 11.815 60.215 11.536 59.991 11.349 59.767 11.162 59.463 11.067 59.079 11.067 58.833 11.067 58.608 11.112 58.403 11.2 58.197 11.288 58.02 11.423 57.871 11.604 57.721 11.785 57.605 12.011 57.523 12.28 57.44 12.549 57.399 12.863 57.399 13.22 57.399 13.844 57.523 14.332 57.771 14.684 58.019 15.036 58.404 15.212 58.927 15.212 59.108 15.212 59.279 15.2 59.439 15.176 59.599 15.151 59.74 15.124 59.863 15.092 60.001 15.055 60.132 15.012 60.255 14.964L60.255 14.452zM57.975 12.964C57.98 12.771 58.008 12.589 58.059 12.417 58.109 12.245 58.18 12.095 58.271 11.966 58.361 11.838 58.475 11.736 58.611 11.661 58.747 11.586 58.903 11.548 59.079 11.548 59.297 11.548 59.464 11.607 59.579 11.725 59.693 11.843 59.751 12.009 59.751 12.224 59.751 12.449 59.671 12.629 59.511 12.763 59.351 12.897 59.103 12.964 58.767 12.964L57.975 12.964zM63.439 11.076C63.252 11.065 63.073 11.085 62.903 11.136 62.732 11.187 62.577 11.241 62.439 11.3 62.279 11.369 62.127 11.452 61.983 11.548L61.903 11.147 61.463 11.147 61.463 15.148 62.039 15.148 62.039 11.972C62.183 11.892 62.332 11.823 62.487 11.764 62.62 11.711 62.769 11.667 62.935 11.632 63.1 11.597 63.268 11.588 63.439 11.604L63.439 11.076zM64.767 12.112C64.82 11.98 64.889 11.873 64.975 11.788 65.06 11.703 65.157 11.64 65.267 11.6 65.376 11.56 65.484 11.54 65.591 11.54 65.772 11.54 65.929 11.565 66.063 11.616 66.196 11.667 66.308 11.721 66.399 11.78 66.5 11.849 66.588 11.929 66.663 12.02L66.663 12.58C66.663 12.937 66.567 13.203 66.375 13.376 66.183 13.549 65.948 13.636 65.671 13.636 65.393 13.636 65.16 13.549 64.971 13.376 64.781 13.203 64.687 12.937 64.687 12.58 64.687 12.399 64.713 12.243 64.767 12.112L64.767 12.112zM64.911 15.22C64.943 15.225 64.979 15.229 65.019 15.232 65.059 15.234 65.103 15.236 65.151 15.236L66.159 15.236C66.271 15.236 66.377 15.243 66.479 15.256 66.58 15.269 66.668 15.294 66.743 15.331 66.817 15.368 66.877 15.421 66.923 15.49 66.968 15.559 66.991 15.649 66.991 15.76 66.991 15.872 66.957 15.968 66.891 16.051 66.824 16.133 66.732 16.2 66.615 16.253 66.497 16.306 66.36 16.346 66.203 16.372 66.045 16.399 65.876 16.412 65.695 16.412 65.513 16.412 65.347 16.4 65.195 16.38 65.043 16.358 64.912 16.325 64.803 16.276 64.693 16.229 64.608 16.167 64.547 16.09 64.485 16.013 64.455 15.917 64.455 15.8 64.455 15.71 64.473 15.627 64.511 15.55 64.548 15.473 64.588 15.408 64.631 15.355 64.684 15.297 64.743 15.244 64.807 15.196 64.839 15.207 64.873 15.215 64.911 15.22L64.911 15.22zM64.315 16.581C64.584 16.74 65.025 16.82 65.639 16.82 66.257 16.82 66.728 16.717 67.051 16.512 67.373 16.307 67.535 16.036 67.535 15.7 67.535 15.369 67.431 15.129 67.223 14.98 67.015 14.831 66.708 14.756 66.303 14.756L65.303 14.756C65.095 14.756 64.948 14.724 64.863 14.66 64.777 14.596 64.735 14.511 64.735 14.404 64.735 14.185 64.929 14.076 65.319 14.076L65.671 14.076C65.879 14.076 66.076 14.045 66.263 13.983 66.449 13.923 66.613 13.829 66.755 13.704 66.896 13.579 67.009 13.419 67.095 13.224 67.18 13.029 67.223 12.799 67.223 12.532L67.223 11.147 66.791 11.147 66.711 11.548C66.62 11.463 66.513 11.385 66.391 11.316 66.284 11.257 66.156 11.203 66.007 11.152 65.857 11.101 65.687 11.076 65.495 11.076 65.335 11.076 65.173 11.107 65.011 11.168 64.848 11.229 64.701 11.324 64.571 11.452 64.44 11.58 64.332 11.741 64.247 11.936 64.161 12.131 64.119 12.358 64.119 12.62 64.119 12.855 64.152 13.048 64.219 13.2 64.285 13.352 64.361 13.473 64.447 13.563 64.543 13.671 64.655 13.753 64.783 13.812 64.671 13.834 64.572 13.874 64.487 13.932 64.412 13.981 64.344 14.05 64.283 14.141 64.221 14.232 64.191 14.35 64.191 14.495 64.191 14.586 64.204 14.665 64.231 14.731 64.257 14.798 64.287 14.853 64.319 14.896 64.356 14.95 64.401 14.99 64.455 15.016 64.353 15.07 64.263 15.139 64.183 15.224 64.113 15.298 64.051 15.389 63.995 15.495 63.939 15.602 63.911 15.724 63.911 15.862 63.911 16.182 64.045 16.421 64.315 16.581L64.315 16.581zM68.407 15.148L68.983 15.148 68.983 11.148 68.407 11.148 68.407 15.148zM68.375 10.212C68.465 10.303 68.577 10.348 68.711 10.348 68.844 10.348 68.956 10.303 69.047 10.212 69.137 10.121 69.183 10.009 69.183 9.876 69.183 9.743 69.137 9.631 69.047 9.54 68.956 9.449 68.844 9.404 68.711 9.404 68.577 9.404 68.465 9.449 68.375 9.54 68.284 9.631 68.239 9.743 68.239 9.876 68.239 10.009 68.284 10.121 68.375 10.212L68.375 10.212zM72.895 14.452C72.761 14.505 72.625 14.551 72.487 14.588 72.364 14.62 72.232 14.649 72.091 14.676 71.949 14.703 71.809 14.716 71.671 14.716 71.479 14.716 71.319 14.684 71.191 14.621 71.063 14.557 70.959 14.47 70.879 14.358 70.799 14.247 70.74 14.113 70.703 13.957 70.665 13.801 70.639 13.63 70.623 13.444L71.407 13.444C71.593 13.444 71.78 13.428 71.967 13.396 72.153 13.364 72.32 13.301 72.467 13.207 72.613 13.114 72.733 12.984 72.827 12.822 72.92 12.659 72.967 12.446 72.967 12.184 72.967 11.815 72.855 11.536 72.631 11.349 72.407 11.162 72.103 11.067 71.719 11.067 71.473 11.067 71.248 11.112 71.043 11.2 70.837 11.288 70.66 11.423 70.511 11.604 70.361 11.785 70.245 12.011 70.163 12.28 70.08 12.549 70.039 12.863 70.039 13.22 70.039 13.844 70.163 14.332 70.411 14.684 70.659 15.036 71.044 15.212 71.567 15.212 71.748 15.212 71.919 15.2 72.079 15.176 72.239 15.151 72.38 15.124 72.503 15.092 72.641 15.055 72.772 15.012 72.895 14.964L72.895 14.452zM70.615 12.964C70.62 12.771 70.648 12.589 70.699 12.417 70.749 12.245 70.82 12.095 70.911 11.966 71.001 11.838 71.115 11.736 71.251 11.661 71.387 11.586 71.543 11.548 71.719 11.548 71.937 11.548 72.104 11.607 72.219 11.725 72.333 11.843 72.391 12.009 72.391 12.224 72.391 12.449 72.311 12.629 72.151 12.763 71.991 12.897 71.743 12.964 71.407 12.964L70.615 12.964 70.615 12.964z" mask="url(#senweb-logo-d)"/>
    </g>
    <path fill="#D82333" d="M17.248,1.388 C17.115,1.372 16.98,1.353 16.848,1.332 C16.735,1.315 16.613,1.301 16.48,1.288 C16.347,1.274 16.224,1.268 16.111,1.268 C15.845,1.268 15.61,1.305 15.408,1.38 C15.205,1.455 15.035,1.557 14.896,1.688 C14.756,1.819 14.651,1.971 14.58,2.144 C14.507,2.316 14.472,2.503 14.472,2.7 C14.472,3.009 14.531,3.261 14.648,3.456 C14.765,3.65 14.911,3.814 15.084,3.948 C15.256,4.081 15.444,4.195 15.647,4.288 C15.851,4.381 16.039,4.48 16.211,4.584 C16.385,4.688 16.531,4.809 16.647,4.948 C16.765,5.087 16.824,5.268 16.824,5.492 C16.824,5.796 16.729,6.037 16.54,6.216 C16.351,6.395 16.072,6.483 15.704,6.483 C15.555,6.483 15.405,6.473 15.255,6.452 C15.106,6.431 14.971,6.407 14.848,6.38 C14.709,6.348 14.573,6.311 14.44,6.268 L14.44,6.828 C14.567,6.871 14.701,6.905 14.839,6.932 C14.962,6.959 15.096,6.98 15.24,7 C15.384,7.019 15.533,7.028 15.688,7.028 C15.992,7.028 16.254,6.989 16.476,6.912 C16.697,6.835 16.879,6.727 17.023,6.588 C17.168,6.449 17.273,6.284 17.339,6.092 C17.407,5.899 17.44,5.689 17.44,5.46 C17.44,5.156 17.38,4.909 17.264,4.72 C17.147,4.531 17,4.373 16.824,4.248 C16.647,4.123 16.456,4.015 16.252,3.924 C16.046,3.833 15.855,3.734 15.68,3.628 C15.503,3.521 15.356,3.395 15.24,3.248 C15.123,3.101 15.064,2.911 15.064,2.676 C15.064,2.42 15.157,2.209 15.344,2.044 C15.531,1.879 15.781,1.796 16.096,1.796 C16.208,1.796 16.331,1.804 16.463,1.82 C16.597,1.836 16.723,1.852 16.839,1.868 C16.979,1.889 17.115,1.911 17.248,1.932 L17.248,1.388 Z M21.16,6.252 C21.026,6.305 20.891,6.351 20.752,6.388 C20.628,6.42 20.497,6.449 20.355,6.476 C20.214,6.503 20.075,6.516 19.936,6.516 C19.744,6.516 19.584,6.483 19.456,6.421 C19.328,6.356 19.224,6.27 19.144,6.158 C19.063,6.047 19.004,5.913 18.968,5.757 C18.931,5.601 18.903,5.43 18.888,5.244 L19.671,5.244 C19.858,5.244 20.044,5.228 20.231,5.196 C20.419,5.164 20.585,5.101 20.731,5.007 C20.878,4.914 20.999,4.785 21.092,4.622 C21.185,4.459 21.231,4.246 21.231,3.983 C21.231,3.615 21.12,3.336 20.896,3.148 C20.671,2.962 20.368,2.868 19.983,2.868 C19.739,2.868 19.513,2.912 19.308,3 C19.103,3.088 18.925,3.223 18.775,3.404 C18.627,3.585 18.511,3.811 18.428,4.08 C18.345,4.349 18.304,4.663 18.304,5.02 C18.304,5.644 18.428,6.132 18.676,6.483 C18.923,6.836 19.309,7.012 19.831,7.012 C20.013,7.012 20.184,7 20.344,6.976 C20.503,6.952 20.645,6.924 20.768,6.892 C20.907,6.855 21.037,6.812 21.16,6.764 L21.16,6.252 Z M18.879,4.764 C18.885,4.571 18.913,4.389 18.963,4.217 C19.015,4.045 19.085,3.895 19.176,3.766 C19.267,3.638 19.379,3.536 19.516,3.461 C19.651,3.386 19.808,3.348 19.983,3.348 C20.203,3.348 20.369,3.407 20.483,3.524 C20.599,3.643 20.656,3.809 20.656,4.023 C20.656,4.249 20.576,4.429 20.416,4.563 C20.255,4.697 20.007,4.764 19.671,4.764 L18.879,4.764 Z M25.359,6.948 L25.359,3.996 C25.359,3.868 25.347,3.739 25.319,3.607 C25.293,3.477 25.241,3.356 25.164,3.248 C25.086,3.139 24.977,3.049 24.835,2.98 C24.694,2.911 24.509,2.876 24.28,2.876 C24.115,2.876 23.949,2.9 23.784,2.952 C23.619,3.003 23.469,3.057 23.335,3.116 C23.181,3.185 23.032,3.263 22.888,3.348 L22.808,2.948 L22.368,2.948 L22.368,6.948 L22.943,6.948 L22.943,3.765 C23.072,3.689 23.205,3.623 23.344,3.564 C23.46,3.511 23.592,3.463 23.735,3.42 C23.879,3.377 24.021,3.355 24.16,3.355 C24.293,3.355 24.399,3.375 24.48,3.412 C24.56,3.45 24.623,3.503 24.668,3.573 C24.712,3.642 24.744,3.728 24.76,3.829 C24.775,3.931 24.784,4.046 24.784,4.174 L24.784,6.948 L25.359,6.948 Z M26.744,3.62 C26.904,3.572 27.064,3.529 27.224,3.492 C27.361,3.46 27.512,3.429 27.671,3.399 C27.832,3.371 27.981,3.355 28.12,3.355 C28.413,3.355 28.611,3.408 28.715,3.513 C28.819,3.618 28.872,3.807 28.872,4.081 L28.872,4.548 L27.928,4.548 C27.725,4.548 27.537,4.577 27.364,4.636 C27.19,4.695 27.042,4.779 26.919,4.888 C26.796,4.997 26.701,5.132 26.631,5.292 C26.562,5.452 26.527,5.633 26.527,5.836 C26.527,5.996 26.55,6.148 26.596,6.292 C26.641,6.436 26.71,6.561 26.804,6.668 C26.896,6.774 27.016,6.859 27.16,6.924 C27.304,6.988 27.477,7.02 27.68,7.02 C27.817,7.02 27.96,6.996 28.104,6.948 C28.248,6.899 28.38,6.847 28.503,6.788 C28.642,6.719 28.784,6.639 28.928,6.548 L29.007,6.948 L29.448,6.948 L29.448,3.939 C29.448,3.731 29.423,3.56 29.376,3.424 C29.328,3.288 29.253,3.18 29.156,3.1 C29.057,3.02 28.932,2.963 28.78,2.928 C28.627,2.893 28.448,2.876 28.24,2.876 C28.042,2.876 27.854,2.889 27.676,2.916 C27.497,2.941 27.337,2.968 27.2,2.995 C27.034,3.032 26.881,3.071 26.744,3.114 L26.744,3.62 Z M27.355,5.2 C27.523,5.069 27.735,5.004 27.992,5.004 L28.872,5.004 L28.872,6.116 C28.744,6.196 28.616,6.265 28.488,6.324 C28.38,6.377 28.264,6.424 28.136,6.464 C28.007,6.504 27.89,6.523 27.784,6.523 C27.565,6.523 27.396,6.457 27.28,6.324 C27.162,6.19 27.104,6.012 27.104,5.788 C27.104,5.526 27.188,5.331 27.355,5.2 L27.355,5.2 Z M32.696,6.476 C32.652,6.487 32.607,6.495 32.56,6.5 C32.479,6.516 32.389,6.523 32.288,6.523 C32.132,6.523 32.009,6.505 31.916,6.468 C31.822,6.431 31.752,6.374 31.704,6.299 C31.656,6.225 31.624,6.128 31.607,6.011 C31.592,5.893 31.584,5.754 31.584,5.594 L31.584,3.428 L32.576,3.428 L32.576,2.948 L31.584,2.948 L31.584,1.348 L31.007,1.348 L31.007,2.948 L30.344,2.948 L30.344,3.428 L31.007,3.428 L31.007,5.681 C31.007,6.135 31.096,6.472 31.272,6.69 C31.448,6.911 31.753,7.02 32.191,7.02 C32.25,7.02 32.309,7.019 32.368,7.016 C32.426,7.013 32.479,7.007 32.527,6.996 C32.585,6.991 32.642,6.982 32.696,6.972 L32.696,6.476 Z M35.576,2.98 C35.474,2.965 35.37,2.948 35.264,2.932 C35.172,2.921 35.065,2.909 34.943,2.896 C34.821,2.883 34.696,2.876 34.567,2.876 C34.333,2.876 34.131,2.904 33.963,2.96 C33.795,3.016 33.658,3.094 33.552,3.192 C33.444,3.292 33.366,3.407 33.315,3.538 C33.265,3.669 33.24,3.809 33.24,3.958 C33.24,4.199 33.288,4.39 33.384,4.532 C33.48,4.673 33.6,4.787 33.744,4.872 C33.888,4.958 34.044,5.025 34.215,5.077 C34.386,5.128 34.544,5.185 34.688,5.249 C34.832,5.313 34.952,5.394 35.047,5.49 C35.144,5.586 35.191,5.722 35.191,5.898 C35.191,5.963 35.182,6.031 35.164,6.103 C35.145,6.175 35.107,6.242 35.052,6.304 C34.996,6.365 34.919,6.417 34.824,6.46 C34.728,6.503 34.6,6.523 34.44,6.523 C34.306,6.523 34.171,6.515 34.036,6.496 C33.899,6.477 33.775,6.455 33.664,6.428 C33.53,6.4 33.401,6.369 33.28,6.332 L33.28,6.87 C33.392,6.901 33.512,6.928 33.64,6.949 C33.746,6.97 33.869,6.987 34.007,7 C34.146,7.013 34.29,7.02 34.44,7.02 C34.696,7.02 34.909,6.987 35.08,6.92 C35.25,6.854 35.386,6.766 35.488,6.657 C35.588,6.548 35.661,6.424 35.704,6.286 C35.746,6.147 35.768,6.009 35.768,5.871 C35.768,5.609 35.72,5.401 35.624,5.248 C35.527,5.094 35.406,4.973 35.26,4.885 C35.113,4.797 34.954,4.726 34.784,4.673 C34.613,4.62 34.454,4.564 34.308,4.506 C34.161,4.447 34.04,4.371 33.943,4.278 C33.848,4.185 33.8,4.053 33.8,3.883 C33.8,3.75 33.853,3.629 33.96,3.52 C34.065,3.411 34.269,3.355 34.567,3.355 C34.685,3.355 34.802,3.364 34.919,3.38 L35.248,3.412 C35.359,3.433 35.469,3.452 35.576,3.468 L35.576,2.98 Z M37.775,5.78 C37.717,5.599 37.657,5.415 37.596,5.228 C37.534,5.041 37.493,4.895 37.472,4.788 L37.104,2.948 L36.463,2.948 L36.879,4.788 C36.912,4.937 36.97,5.133 37.056,5.376 C37.141,5.619 37.229,5.856 37.319,6.092 C37.426,6.364 37.544,6.648 37.671,6.948 L38.304,6.948 C38.432,6.655 38.548,6.372 38.656,6.1 C38.746,5.865 38.835,5.627 38.923,5.384 C39.012,5.141 39.074,4.942 39.111,4.788 L39.536,2.948 L38.919,2.948 L38.552,4.788 C38.524,4.905 38.483,5.056 38.428,5.24 C38.372,5.424 38.312,5.606 38.248,5.788 C38.172,6.001 38.093,6.223 38.007,6.452 C37.921,6.217 37.845,5.993 37.775,5.78 L37.775,5.78 Z M43.072,6.252 C42.938,6.305 42.802,6.351 42.664,6.388 C42.541,6.42 42.409,6.449 42.268,6.476 C42.126,6.503 41.985,6.516 41.848,6.516 C41.656,6.516 41.496,6.483 41.368,6.421 C41.24,6.356 41.136,6.27 41.056,6.158 C40.976,6.047 40.917,5.913 40.879,5.757 C40.842,5.601 40.815,5.43 40.8,5.244 L41.584,5.244 C41.77,5.244 41.957,5.228 42.144,5.196 C42.33,5.164 42.497,5.101 42.644,5.007 C42.79,4.914 42.91,4.785 43.003,4.622 C43.097,4.459 43.144,4.246 43.144,3.983 C43.144,3.615 43.032,3.336 42.808,3.148 C42.584,2.962 42.28,2.868 41.896,2.868 C41.649,2.868 41.425,2.912 41.22,3 C41.014,3.088 40.836,3.223 40.688,3.404 C40.538,3.585 40.421,3.811 40.339,4.08 C40.256,4.349 40.215,4.663 40.215,5.02 C40.215,5.644 40.339,6.132 40.587,6.483 C40.835,6.836 41.221,7.012 41.744,7.012 C41.925,7.012 42.096,7 42.255,6.976 C42.416,6.952 42.557,6.924 42.68,6.892 C42.817,6.855 42.949,6.812 43.072,6.764 L43.072,6.252 Z M40.792,4.764 C40.796,4.571 40.825,4.389 40.876,4.217 C40.926,4.045 40.997,3.895 41.087,3.766 C41.178,3.638 41.292,3.536 41.428,3.461 C41.564,3.386 41.72,3.348 41.896,3.348 C42.114,3.348 42.281,3.407 42.396,3.524 C42.51,3.643 42.567,3.809 42.567,4.023 C42.567,4.249 42.488,4.429 42.328,4.563 C42.168,4.697 41.919,4.764 41.584,4.764 L40.792,4.764 Z M46.255,2.876 C46.068,2.865 45.89,2.885 45.72,2.936 C45.548,2.987 45.394,3.041 45.255,3.1 C45.096,3.169 44.943,3.252 44.8,3.348 L44.72,2.948 L44.28,2.948 L44.28,6.948 L44.856,6.948 L44.856,3.772 C45,3.691 45.148,3.623 45.304,3.564 C45.437,3.511 45.585,3.467 45.752,3.432 C45.917,3.397 46.085,3.388 46.255,3.404 L46.255,2.876 Z M50.823,6.948 C50.919,6.648 51.006,6.364 51.086,6.092 C51.157,5.856 51.221,5.62 51.278,5.38 C51.337,5.14 51.377,4.942 51.398,4.788 L51.623,2.948 L51.015,2.948 L50.831,4.788 C50.821,4.899 50.796,5.049 50.759,5.236 C50.722,5.423 50.682,5.606 50.639,5.788 C50.59,6.001 50.538,6.223 50.479,6.452 L49.543,2.948 L48.967,2.948 L48.031,6.452 C47.973,6.217 47.919,5.993 47.871,5.78 C47.829,5.599 47.789,5.415 47.751,5.228 C47.713,5.041 47.69,4.895 47.679,4.788 L47.495,2.948 L46.855,2.948 L47.086,4.788 C47.103,4.937 47.142,5.133 47.203,5.376 C47.265,5.619 47.33,5.856 47.398,6.092 C47.479,6.364 47.565,6.648 47.655,6.948 L48.367,6.948 L49.239,3.66 L50.127,6.948 L50.823,6.948 Z M52.734,3.62 C52.895,3.572 53.055,3.529 53.214,3.492 C53.354,3.46 53.502,3.429 53.663,3.399 C53.823,3.371 53.973,3.355 54.11,3.355 C54.405,3.355 54.603,3.408 54.707,3.513 C54.811,3.618 54.863,3.807 54.863,4.081 L54.863,4.548 L53.919,4.548 C53.717,4.548 53.528,4.577 53.355,4.636 C53.182,4.695 53.034,4.779 52.911,4.888 C52.789,4.997 52.692,5.132 52.623,5.292 C52.554,5.452 52.519,5.633 52.519,5.836 C52.519,5.996 52.542,6.148 52.586,6.292 C52.632,6.436 52.702,6.561 52.794,6.668 C52.889,6.774 53.006,6.859 53.15,6.924 C53.294,6.988 53.469,7.02 53.67,7.02 C53.81,7.02 53.951,6.996 54.095,6.948 C54.239,6.899 54.373,6.847 54.495,6.788 C54.634,6.719 54.774,6.639 54.919,6.548 L54.999,6.948 L55.439,6.948 L55.439,3.939 C55.439,3.731 55.415,3.56 55.367,3.424 C55.318,3.288 55.246,3.18 55.147,3.1 C55.048,3.02 54.922,2.963 54.771,2.928 C54.619,2.893 54.439,2.876 54.231,2.876 C54.034,2.876 53.846,2.889 53.667,2.916 C53.489,2.941 53.33,2.968 53.19,2.995 C53.025,3.032 52.874,3.071 52.734,3.114 L52.734,3.62 Z M53.347,5.2 C53.515,5.069 53.727,5.004 53.982,5.004 L54.863,5.004 L54.863,6.116 C54.734,6.196 54.606,6.265 54.479,6.324 C54.373,6.377 54.254,6.424 54.127,6.464 C53.999,6.504 53.881,6.523 53.774,6.523 C53.557,6.523 53.389,6.457 53.271,6.324 C53.153,6.19 53.095,6.012 53.095,5.788 C53.095,5.526 53.179,5.331 53.347,5.2 L53.347,5.2 Z M56.759,6.948 L57.335,6.948 L57.335,0.868 L56.759,0.868 L56.759,6.948 Z M60.599,6.476 C60.557,6.487 60.511,6.495 60.462,6.5 C60.382,6.516 60.293,6.523 60.19,6.523 C60.037,6.523 59.913,6.505 59.818,6.468 C59.726,6.431 59.655,6.374 59.606,6.299 C59.559,6.225 59.526,6.128 59.511,6.011 C59.495,5.893 59.486,5.754 59.486,5.594 L59.486,3.428 L60.479,3.428 L60.479,2.948 L59.486,2.948 L59.486,1.348 L58.911,1.348 L58.911,2.948 L58.247,2.948 L58.247,3.428 L58.911,3.428 L58.911,5.681 C58.911,6.135 58.999,6.472 59.175,6.69 C59.351,6.911 59.658,7.02 60.095,7.02 C60.153,7.02 60.212,7.019 60.271,7.016 C60.33,7.013 60.382,7.007 60.431,6.996 C60.49,6.991 60.545,6.982 60.599,6.972 L60.599,6.476 Z M61.382,2.948 L61.382,5.899 C61.382,6.028 61.396,6.157 61.422,6.288 C61.45,6.419 61.501,6.539 61.579,6.647 C61.656,6.757 61.766,6.847 61.907,6.916 C62.047,6.984 62.233,7.02 62.462,7.02 C62.627,7.02 62.793,6.996 62.959,6.948 C63.124,6.899 63.273,6.847 63.407,6.788 C63.562,6.719 63.71,6.639 63.854,6.548 L63.935,6.948 L64.374,6.948 L64.374,2.948 L63.798,2.948 L63.798,6.131 C63.67,6.211 63.538,6.281 63.398,6.34 C63.282,6.393 63.15,6.439 63.006,6.48 C62.863,6.52 62.722,6.54 62.583,6.54 C62.45,6.54 62.343,6.521 62.263,6.483 C62.183,6.447 62.12,6.393 62.075,6.324 C62.03,6.254 61.999,6.169 61.982,6.066 C61.967,5.966 61.959,5.851 61.959,5.722 L61.959,2.948 L61.382,2.948 Z M68.703,6.948 L68.703,3.996 C68.703,3.868 68.689,3.739 68.663,3.607 C68.636,3.477 68.584,3.356 68.506,3.248 C68.43,3.139 68.319,3.049 68.179,2.98 C68.038,2.911 67.852,2.876 67.623,2.876 C67.458,2.876 67.292,2.9 67.127,2.952 C66.961,3.003 66.812,3.057 66.679,3.116 C66.523,3.185 66.374,3.263 66.23,3.348 L66.15,2.948 L65.71,2.948 L65.71,6.948 L66.287,6.948 L66.287,3.765 C66.415,3.689 66.547,3.623 66.687,3.564 C66.804,3.511 66.935,3.463 67.079,3.42 C67.223,3.377 67.364,3.355 67.502,3.355 C67.636,3.355 67.743,3.375 67.823,3.412 C67.902,3.45 67.965,3.503 68.011,3.573 C68.056,3.642 68.086,3.728 68.103,3.829 C68.119,3.931 68.127,4.046 68.127,4.174 L68.127,6.948 L68.703,6.948 Z M70.462,3.912 C70.516,3.781 70.585,3.673 70.67,3.588 C70.755,3.503 70.854,3.439 70.962,3.399 C71.072,3.359 71.18,3.34 71.287,3.34 C71.468,3.34 71.626,3.365 71.759,3.416 C71.892,3.467 72.003,3.521 72.095,3.58 C72.196,3.648 72.284,3.729 72.358,3.82 L72.358,4.38 C72.358,4.737 72.263,5.003 72.071,5.176 C71.878,5.349 71.644,5.436 71.367,5.436 C71.089,5.436 70.855,5.349 70.667,5.176 C70.478,5.003 70.382,4.737 70.382,4.38 C70.382,4.199 70.41,4.043 70.462,3.912 L70.462,3.912 Z M70.606,7.02 C70.639,7.024 70.675,7.029 70.714,7.032 C70.754,7.035 70.798,7.036 70.847,7.036 L71.855,7.036 C71.967,7.036 72.074,7.043 72.175,7.056 C72.275,7.069 72.364,7.094 72.438,7.131 C72.514,7.168 72.574,7.221 72.619,7.29 C72.664,7.358 72.687,7.449 72.687,7.56 C72.687,7.672 72.653,7.768 72.586,7.851 C72.52,7.933 72.428,8 72.311,8.053 C72.193,8.105 72.056,8.146 71.898,8.172 C71.742,8.199 71.572,8.212 71.391,8.212 C71.21,8.212 71.043,8.201 70.891,8.18 C70.739,8.159 70.607,8.125 70.498,8.077 C70.39,8.029 70.304,7.967 70.243,7.89 C70.182,7.813 70.15,7.717 70.15,7.6 C70.15,7.51 70.169,7.427 70.207,7.35 C70.244,7.273 70.284,7.208 70.327,7.155 C70.379,7.097 70.439,7.044 70.502,6.996 C70.535,7.007 70.569,7.015 70.606,7.02 L70.606,7.02 Z M70.011,8.381 C70.28,8.54 70.722,8.62 71.335,8.62 C71.954,8.62 72.423,8.517 72.747,8.312 C73.069,8.106 73.231,7.836 73.231,7.5 C73.231,7.169 73.127,6.929 72.919,6.78 C72.71,6.631 72.403,6.556 71.998,6.556 L70.999,6.556 C70.79,6.556 70.644,6.523 70.559,6.46 C70.474,6.396 70.431,6.311 70.431,6.204 C70.431,5.984 70.626,5.876 71.015,5.876 L71.367,5.876 C71.575,5.876 71.772,5.845 71.959,5.784 C72.146,5.723 72.31,5.629 72.451,5.504 C72.592,5.379 72.706,5.219 72.791,5.023 C72.876,4.829 72.919,4.599 72.919,4.332 L72.919,2.948 L72.486,2.948 L72.407,3.348 C72.315,3.263 72.21,3.185 72.086,3.116 C71.98,3.057 71.852,3.003 71.703,2.952 C71.554,2.9 71.382,2.876 71.19,2.876 C71.031,2.876 70.87,2.907 70.706,2.968 C70.544,3.029 70.398,3.124 70.267,3.252 C70.136,3.38 70.027,3.541 69.942,3.736 C69.857,3.931 69.814,4.159 69.814,4.42 C69.814,4.655 69.848,4.848 69.915,5 C69.981,5.151 70.058,5.273 70.143,5.364 C70.239,5.471 70.351,5.553 70.479,5.612 C70.367,5.634 70.268,5.674 70.183,5.731 C70.107,5.781 70.04,5.85 69.979,5.94 C69.918,6.032 69.887,6.149 69.887,6.295 C69.887,6.386 69.899,6.465 69.927,6.531 C69.954,6.598 69.982,6.653 70.015,6.696 C70.052,6.75 70.098,6.79 70.15,6.815 C70.05,6.87 69.959,6.939 69.878,7.023 C69.81,7.098 69.747,7.189 69.69,7.295 C69.635,7.401 69.606,7.523 69.606,7.662 C69.606,7.981 69.742,8.221 70.011,8.381 L70.011,8.381 Z"/>
  </g>
</svg>
